<svg version="1.1" xmlns="http://www.w3.org/2000/svg" viewBox="-2185.9615670747826 -1385.6000701904297 3835.625736577041 2155.7760681152345"><desc>Created with Snap</desc><defs></defs><g><g transform="matrix(2.3594,0,0,2.3594,-1914.1521,-1133.3734)"><g><path d="M198.5,26.7c-12,16.2-26.1,47.4-31.5,69.7c-2.3,9.5-4.8,30-4.8,38.9c0,16.1,3.9,46.5,6.2,49c0.4,0.4,6.6,1.5,13.8,2.2   c48.8,5.3,102.2,29,114.2,50.9c2.8,5,3.1,6.4,3.1,15.4c0,10.5-1.5,16.5-6.5,26.9c-3.2,6.7-11,13.4-21.6,18.7   c-6.5,3.2-8.7,3.9-16.8,4.2c-9,0.5-9.7,0.4-15.4-2.7c-11-5.8-23.1-16.9-33.9-31.4c-5.6-7.4-7.6-10.3-14.1-20.5   c-5.9-9.5-18.4-36-22-47.2l-4-11.7h-8.6c-32.9,0-70.8,11.5-98.3,29.8C41.7,230.2,15,253.6,15,257c0,7.8,17,44.7,28.3,61.3   c8,11.9,26.3,31.7,36.4,39.6c13.1,10.1,36.9,24.5,40.6,24.5c0.5,0,4.4-3.5,8.6-7.9c9.4-9.6,31.3-27,44.8-35.6   c29-18.4,56.4-27,71.6-22.4c9.9,2.9,19.5,12.5,26.8,26.8c2.9,5.6,3.2,7.2,3.1,15.7c-0.1,9.4-2.2,20-5.2,26.1   c-2.7,5.4-10.7,12.8-16.4,15c-14.1,5.6-36.1,7.6-59.4,5.4c-17.1-1.7-43.2-7.2-59.8-12.9l-12.7-4.4l-2.2,2.6   c-7.8,9.4-21.9,33.1-27.1,45.8c-10.2,24.7-14,44.1-14.1,73.2c0,12,0.5,24,1.4,29.3l1.4,9.1l8.8,3.2c17.4,6.4,43.1,11.6,63.6,13   c8.7,0.6,28.9-0.8,40.9-3c10.7-2,32.8-9,43.4-13.8c9-4.2,8.7-3.3,6.9-16c-0.6-4.3-1-17.2-1-28.7c0-31.1,3.5-53.6,11.3-73.1   c6.5-16.2,11.4-22.5,21.4-27.8c8-4.3,31.6-3.9,40.5,0.7c6.8,3.4,19.3,16.4,23.3,24.1c0.9,1.8,2.2,6.4,2.8,10.2   c0.9,5.8,0.8,8-0.5,12.8c-2.1,7-6.4,15.7-12.4,25c-13.4,20.7-44.4,49.7-68.8,64.3l-10.2,6.2l0.6,4.3c0.9,5.7,8,26.8,12.6,37.3   c11.5,26.1,30.1,49.7,54.4,68.9c12.9,10.2,28.9,20.8,31.6,20.8s18.7-10.5,31.6-20.8c25.2-19.8,43.4-43.4,55.3-71.3   c4.7-11,10.7-29,11.7-34.9l0.6-4.3l-10.2-6.2c-24.4-14.6-55.4-43.6-68.8-64.3c-6.1-9.4-10.3-18.1-12.4-25c-1.4-4.8-1.5-7-0.5-12.8   c0.6-3.9,1.9-8.5,2.8-10.2c3.8-7.4,13.7-18,21.9-23.4c5.8-3.9,28-5.9,37-3.4c5.7,1.7,13.4,7.2,17.7,12.9   c7.8,10.5,14.9,32.6,18.1,56.7c1.9,14.3,2.3,50.1,0.6,61.9c-1.8,12.6-2.1,11.8,7,16c10.5,4.8,32.6,11.8,43.3,13.8   c12,2.2,32.2,3.7,40.9,3c20.5-1.5,46.1-6.7,63.6-13l8.8-3.2l1.4-9.1c0.7-4.9,1.4-17.6,1.4-28.3c0-28.3-3.1-46-12.5-70.3   c-5.8-15.2-22.2-43.2-29-49.6l-2.6-2.5l-12.3,4.3c-42.6,14.7-92.6,17.8-118.9,7.4c-5.6-2.2-13.7-9.6-16.4-15   c-3-6.1-5.1-16.7-5.2-26.1c-0.1-8.5,0.2-10,3.1-15.7c7.3-14.3,16.9-23.9,26.8-26.8c15.1-4.5,42.8,4.2,71.4,22.3   c13.7,8.7,35.6,26.1,45,35.7c4.2,4.4,8,7.9,8.6,7.9c3.7,0,27.4-14.4,40.6-24.5c10.1-7.8,28.4-27.7,36.4-39.6   C668,301.7,685,264.8,685,257c0-3.4-26.7-26.8-43.2-37.9c-27.6-18.4-65.4-29.8-98.3-29.8h-8.6l-3.8,11.2   c-4.4,13.3-16.1,37.6-24.4,50.9c-14.5,23.3-31,40.8-45.8,48.6c-5.7,3.1-6.5,3.2-15.4,2.7c-8.1-0.3-10.3-0.9-16.8-4.2   c-10.6-5.3-18.4-12-21.6-18.7c-5-10.4-6.5-16.4-6.5-26.9c0-9.1,0.3-10.4,3.1-15.4c12-21.9,65.3-45.6,114.2-50.9   c7.2-0.7,13.4-1.8,13.9-2.3c0.4-0.4,1.8-6.4,3-13.3c2.9-16.9,3.2-47.4,0.6-62.6c-3.1-17.7-8.6-34.2-17.3-52.2   c-8.2-17-17-31.5-19.6-32.6c-2.4-0.9-21.1,1.7-35.8,5c-40.3,9.2-70.2,26.3-98,55.9c-13.3,14.1-12.9,12.8-5.8,23.9   c3.2,5.1,6.4,10,6.9,10.9c6.6,10.7,21.1,47.5,24.8,62.9c2.4,10,4.1,26.5,3.7,35.2c-0.7,15.5-7.4,25.5-21.9,32.4   c-7.3,3.4-17.4,6.3-22.3,6.3s-15-2.8-22.3-6.3c-14.5-6.9-21.2-16.8-21.9-32.4c-0.4-8.6,1.3-25.2,3.7-35.4   c3.3-14.4,18.3-52.1,24.8-62.7c0.5-0.8,3.7-5.7,6.9-10.9c7.1-11.1,7.4-9.8-5.8-23.9c-21.6-23.1-45.4-38.9-72.9-48.7   c-16.5-5.9-47.8-12.5-59.1-12.5C201.9,23.3,199.9,24.7,198.5,26.7z" fill="#157c79" style=""></path><path d="M344.1,110.9c-13.5,20.6-26.7,52.5-31.7,76.6c-3,14-3.3,35.9-0.7,41.6c4.5,9.9,15.8,18,30.7,21.7c7.6,2,7.8,2,15.4,0   c10.6-2.7,19.2-7.2,24.5-13c7.1-7.7,7.9-10.4,7.8-26.1c-0.2-25.2-7.9-51.2-25-85.3c-3.8-7.5-14.1-23.8-15-23.8   C349.7,102.7,347,106.4,344.1,110.9z" fill="#157c79" style=""></path><path d="M170.1,192.1c1.8,7.4,8,23,14.5,35.8c18.6,37.3,45.6,67.6,63.1,71c9.9,1.9,23.1-2.6,34-11.7c5.8-4.7,8.8-9.7,11.9-19.9   c3.8-12.3,2.8-23.3-2.8-30.7c-9-12.1-30.7-25.2-56.7-34.2c-19-6.6-49.6-13-61.9-13C169.7,189.3,169.5,189.6,170.1,192.1z" fill="#157c79" style=""></path><path d="M512.3,190.8c-29.4,4.2-63.9,16.2-84.2,29.2c-22.5,14.6-28.1,26.6-21.7,47.4c3.1,10,6.2,15,11.9,19.7   c11,9.1,24.1,13.6,34,11.7c17.4-3.3,44.6-33.7,63-70.8c6.4-12.6,12.7-28.5,14.6-36c0.6-2.7,0.5-2.8-3.8-2.7   C523.7,189.5,517.5,190.1,512.3,190.8z" fill="#157c79" style=""></path><path d="M228.9,319.3c-14.3,2.7-32.4,10.1-48.3,19.6c-17.6,10.5-45.1,32.5-52.8,42.2l-3.1,4.1l12.7,4.3   c14.3,4.9,37.3,10.1,51.3,11.7c19.9,2.2,45.7,0.9,58.4-2.9c9.1-2.7,16.1-8.6,19.8-16.5c2.2-4.7,4.7-17.3,4.7-23.9   c0-12-11.6-29.6-23.4-35.7C243.2,319.5,234.6,318.3,228.9,319.3z" fill="#157c79" style=""></path><path d="M455.1,320.5c-12.5,4.2-26.8,24.1-26.8,37.4c0,6.6,2.5,19.2,4.7,23.9c3.8,7.9,10.7,13.8,19.8,16.5   c12.7,3.9,38.5,5.1,58.4,2.9c14.1-1.6,37-6.8,51.3-11.7l12.7-4.3l-3.1-4c-4.5-5.7-14.2-14.3-28.6-25.5   c-24.5-18.9-48.4-31.2-68.7-35.4C465.1,318.3,461.6,318.4,455.1,320.5z" fill="#157c79" style=""></path><path d="M285.5,403.3c-10.5,2-18,8-23.4,19.2c-6.3,12.7-9.9,24.9-13,43.8c-2.9,18.1-2.5,68.4,0.7,73.5c1.3,2.1,15.4-6.9,32-20.2   c35-28,59.5-62.4,57.2-80.4c-1.3-10.6-9.8-23.2-20.9-30.8C311.7,404.1,295.4,401.5,285.5,403.3z" fill="#157c79" style=""></path><path d="M402.2,402.8c-14.1,1-20.4,4.1-30.1,14.4c-6.4,6.7-10.2,14.4-11.2,22c-2.3,18,22.1,52.3,57.2,80.4   c16.6,13.4,30.8,22.3,32,20.2c3.2-5.1,3.7-55.4,0.7-73.5c-3.7-21.7-9.1-38.1-16.5-49.6C427.6,406.3,417.2,401.8,402.2,402.8z" fill="#157c79" style=""></path></g><desc>Created with Snap</desc><defs></defs></g><g><g transform="matrix(1.024,0,0,-1.024,0,0)"><path d="M396 46Q414 46 444 87Q474 129 503 194Q533 260 539 260Q546 260 546 252Q546 224 517 163Q438 -5 383 -5Q337 -5 317 11Q308 20 308 201L144 189Q125 137 110 85Q95 33 90 21Q79 -5 37 -5Q9 -5 9 19Q9 43 47 89Q54 98 93 186Q79 185 66 185Q31 185 31 215Q31 242 59 242Q61 242 116 237Q131 272 148 306Q279 580 328 580Q365 580 379 237L388 237Q395 237 395 227Q395 217 380 210Q386 46 396 46ZM159 232Q276 232 308 233Q307 249 306 289Q305 329 304 358Q303 388 302 420Q298 489 290 489Q279 489 245 424Q211 359 192 314Q166 249 159 232ZM778 359L784 295Q784 285 773 279Q763 273 756 273Q742 273 731 295Q721 318 721 337Q721 411 772 462Q824 514 903 540Q903 574 917 604Q932 635 963 635Q976 635 976 598L976 556Q1008 560 1023 560Q1156 560 1233 485Q1311 411 1311 298Q1311 220 1283 160Q1255 100 1207 65Q1111 -5 977 -5L956 -5Q953 -34 948 -34Q901 -34 885 -21Q878 -14 877 3Q788 28 788 58Q788 68 795 73Q802 79 810 79Q819 79 877 55Q886 317 900 505Q845 486 811 448Q778 410 778 359ZM996 521Q982 521 975 520Q971 345 965 226Q960 71 958 31Q978 28 1000 28Q1095 28 1165 98Q1235 169 1235 272Q1235 375 1168 448Q1101 521 996 521Z" fill="#081c4f" style=""></path></g></g></g></svg>